<svg width="48" height="48" viewBox="0 0 48 48" fill="none" xmlns="http://www.w3.org/2000/svg">
<rect width="48" height="48" rx="24" fill="#F6CEE7"/>
<path d="M29.5556 25.0744V27.028L27.7965 28.0739L27.6875 28.1402L17.1582 34.4043V32.4478L25.9284 27.2325L26.0346 27.1691L29.5556 25.0744Z" fill="#D6409F"/>
<path d="M29.5556 23.1208L28.395 23.8123L27.7965 24.1667L25.6152 25.4634L24.2756 26.2615L23.9624 26.4488L17.1582 30.4942C17.1582 30.3761 17.161 30.2608 17.1666 30.1427C17.2002 29.4137 17.34 28.679 17.5889 27.9384C17.8993 27.0078 18.3804 26.0684 19.0292 25.1262C19.032 25.1234 19.0347 25.1176 19.0375 25.1147C20.2904 23.3023 21.7307 21.9106 23.3555 20.9454C24.1554 20.47 24.9076 20.1501 25.6152 19.9859C26.3507 19.8159 27.0359 19.813 27.6735 19.9773C27.8245 20.0147 27.9615 20.0637 28.093 20.1213L28.2132 20.1818C28.3782 20.2625 28.5265 20.3662 28.6607 20.4873C29.2564 21.0174 29.5556 21.8962 29.5556 23.1208Z" fill="#D6409F"/>
<path d="M17.1582 36.3578V38.3113L11.5649 35.43V33.4764L13.324 34.384L17.1582 36.3578Z" fill="#C2298A"/>
<path d="M28.0929 20.1214C27.9615 20.0637 27.8244 20.0147 27.6734 19.9773C27.0358 19.8131 26.3506 19.8159 25.6151 19.9859C24.9076 20.1502 24.1553 20.47 23.3555 20.9454C21.7307 21.9107 20.2904 23.3024 19.0375 25.1147C19.0347 25.1176 19.0319 25.1234 19.0291 25.1263C18.3803 26.0685 17.8993 27.0078 17.5889 27.9385C17.34 28.679 17.2001 29.4137 17.1666 30.1427C17.161 30.2608 17.1582 30.3761 17.1582 30.4942L16.8478 30.3329L15.0859 29.4281L13.324 28.5205L11.5649 27.6129C11.5649 25.838 12.1914 24.0458 13.4443 22.2334C14.6971 20.421 16.1374 19.0293 17.7623 18.0641C19.3871 17.0959 20.8273 16.7732 22.0802 17.0959C22.2676 17.142 22.4437 17.2083 22.6032 17.289L25.604 18.8363L28.0929 20.1214Z" fill="#C2298A"/>
<path d="M31.2083 22.1383V29.9526L29.5555 29.1026V28.9815L27.7965 28.0739L29.5555 27.028V25.0744L28.3418 24.4492L27.7965 24.1668L28.395 23.8124L29.5555 23.1209C29.5555 21.8963 29.2563 21.0175 28.6606 20.4873C28.5264 20.3663 28.3782 20.2626 28.2132 20.1819L28.0929 20.1214L25.6039 18.8363C25.59 18.479 25.5508 18.1476 25.4893 17.8393L25.6487 17.92C26.8708 17.5512 27.9447 17.5454 28.8704 17.9085C29.1221 18.0036 29.3653 18.1304 29.5947 18.2831C30.6713 18.9976 31.2083 20.2799 31.2083 22.1383Z" fill="#651249"/>
<path d="M25.4892 17.8393V17.8365L20.0554 15.0387L19.8289 12.9266L25.4221 15.808L25.6486 17.92L25.4892 17.8393Z" fill="#C2298A"/>
<path d="M35.3389 9.90696L33.8512 28.3793L31.2083 29.9526V22.1383C31.2083 20.2798 30.6714 18.9976 29.5947 18.2831C29.3653 18.1304 29.1221 18.0036 28.8704 17.9085C27.9447 17.5454 26.8708 17.5512 25.6487 17.92L25.4221 15.808L29.2199 13.549L29.5555 13.3502V9.44018L31.2083 8.45764V12.3676L35.3389 9.90696Z" fill="#D6409F"/>
<path d="M31.2084 12.3676V8.4576L29.6926 7.67676L29.1361 7.38862L29.7458 7.02557L35.339 9.90692L31.2084 12.3676Z" fill="#651249"/>
<path d="M31.2084 8.45765L29.5556 9.44019L29.5528 9.43731L27.4834 8.37409L25.6152 7.41172L23.9624 6.55884L25.6152 5.57629L29.1361 7.38867L29.6927 7.6768L31.2084 8.45765Z" fill="#C2298A"/>
<path d="M29.5556 9.44013V13.3501L29.248 13.1917L23.9624 10.4688V6.55878L25.6152 7.41166L27.4834 8.37403L29.5528 9.43725L29.5556 9.44013Z" fill="#651249"/>
<path d="M29.5555 13.3502L29.2199 13.549L25.4221 15.808L19.8289 12.9266L23.9623 10.4688L29.2478 13.1917L29.5555 13.3502Z" fill="#C2298A"/>
<path d="M29.5556 28.9815V30.9379L17.1582 38.3113V36.3578L29.4466 29.0449L29.5556 28.9815Z" fill="#D6409F"/>
<path d="M29.5555 28.9815L29.4465 29.0449L17.1582 36.3578L13.324 34.3841L11.5649 33.4765L13.324 32.4305L15.0859 33.3353L17.1582 34.4042L27.6874 28.1402L27.7965 28.0739L29.5555 28.9815Z" fill="#651249"/>
<path d="M17.1582 32.4478V34.4043L15.0859 33.3353L13.324 32.4305L11.5649 31.5229V29.5665L13.3268 30.4741L15.0859 31.3817L16.8478 32.2893L17.1582 32.4478Z" fill="#C2298A"/>
<path d="M29.5555 25.0744L26.0346 27.1691L25.9283 27.2325L17.1582 32.4478L16.8478 32.2893L15.0859 31.3817L13.3268 30.474L11.5649 29.5664L13.324 28.5205L15.0859 29.4281L16.8478 30.3329L17.1582 30.4942L23.9623 26.4488L24.2756 26.2615L25.6151 25.4634L27.7965 24.1667L28.3418 24.4491L29.5555 25.0744Z" fill="#651249"/>
</svg>
